<?xml version="1.0" encoding="iso-8859-1"?>
<!-- Uploaded to: SVG Repo, www.svgrepo.com, Generator: SVG Repo Mixer Tools -->
<svg fill="#000000" height="800px" width="800px" version="1.1" id="Layer_1" xmlns="http://www.w3.org/2000/svg" xmlns:xlink="http://www.w3.org/1999/xlink" 
	 viewBox="0 0 512.003 512.003" xml:space="preserve">
<g>
	<g>
		<path d="M489.876,233.872h-74.577l21.724-21.724c8.64-8.64,8.642-22.65,0-31.293c-8.639-8.643-22.65-8.64-31.293,0l-53.019,53.016
			h-43.285l127.597-127.597c8.642-8.64,8.642-22.652,0-31.293c-8.64-8.64-22.652-8.64-31.293,0L278.132,202.577v-43.282l53.02-53.02
			c8.642-8.64,8.642-22.652,0-31.293c-8.64-8.64-22.652-8.64-31.293,0L278.13,96.71V22.128C278.13,9.907,268.223,0,256.002,0
			c-12.221,0-22.128,9.907-22.128,22.128V96.71l-21.728-21.728c-8.64-8.642-22.652-8.642-31.293,0c-8.642,8.64-8.642,22.65,0,31.293
			l53.02,53.022v43.282L106.279,74.981c-8.64-8.64-22.652-8.64-31.293,0c-8.642,8.64-8.642,22.652,0,31.293l127.597,127.597H159.3
			l-53.02-53.02c-8.64-8.64-22.652-8.64-31.293,0c-8.642,8.64-8.642,22.652,0,31.293l21.727,21.728H22.132
			c-12.221,0-22.128,9.907-22.128,22.128c0,12.221,9.907,22.128,22.128,22.128h74.58l-21.727,21.727
			c-8.64,8.64-8.642,22.65,0,31.293c4.321,4.322,9.984,6.482,15.646,6.482s11.327-2.161,15.646-6.482l53.022-53.019h43.282
			L74.984,405.728c-8.642,8.64-8.642,22.652,0,31.293c4.321,4.321,9.984,6.482,15.646,6.482s11.327-2.161,15.646-6.482
			l127.597-127.597v43.282l-53.02,53.02c-8.642,8.64-8.642,22.652,0,31.293c8.64,8.64,22.652,8.64,31.293,0l21.728-21.727v74.582
			c0,12.221,9.907,22.128,22.128,22.128s22.128-9.907,22.128-22.128v-74.58l21.727,21.727c4.321,4.322,9.984,6.482,15.646,6.482
			s11.327-2.161,15.646-6.482c8.642-8.64,8.642-22.65,0-31.293l-53.019-53.022v-43.282l127.597,127.597
			c4.321,4.321,9.984,6.482,15.646,6.482c5.662,0,11.327-2.161,15.646-6.482c8.642-8.64,8.642-22.652,0-31.293L309.422,278.131
			h43.279l53.023,53.023c4.321,4.321,9.984,6.482,15.646,6.482c5.662,0,11.327-2.161,15.646-6.482c8.642-8.64,8.642-22.652,0-31.293
			l-21.73-21.73h74.585c12.221,0,22.128-9.907,22.128-22.128S502.096,233.872,489.876,233.872z"/>
	</g>
</g>
</svg>